<svg width="17" height="17" viewBox="0 0 17 17" fill="none" xmlns="http://www.w3.org/2000/svg">
    <path
        d="M14.0306 7.23563L9.0306 12.2356C8.96092 12.3056 8.87813 12.361 8.78696 12.3989C8.6958 12.4367 8.59806 12.4562 8.49935 12.4562C8.40064 12.4562 8.3029 12.4367 8.21173 12.3989C8.12057 12.361 8.03778 12.3056 7.9681 12.2356L2.9681 7.23563C2.8272 7.09473 2.74805 6.90364 2.74805 6.70438C2.74805 6.50512 2.8272 6.31403 2.9681 6.17313C3.10899 6.03223 3.30009 5.95308 3.49935 5.95308C3.69861 5.95308 3.8897 6.03223 4.0306 6.17313L8.49997 10.6425L12.9693 6.1725C13.1102 6.03161 13.3013 5.95245 13.5006 5.95245C13.6999 5.95245 13.891 6.03161 14.0318 6.1725C14.1727 6.3134 14.2519 6.5045 14.2519 6.70375C14.2519 6.90301 14.1727 7.09411 14.0318 7.235L14.0306 7.23563Z"
        fill="#25272A" />
</svg>