<svg width="48" height="49" viewBox="0 0 48 49" fill="none" xmlns="http://www.w3.org/2000/svg">
    <path
        d="M32.7806 24.9407L26.0306 31.6907C25.8899 31.8314 25.699 31.9105 25.5 31.9105C25.301 31.9105 25.1101 31.8314 24.9694 31.6907C24.8286 31.55 24.7496 31.3591 24.7496 31.1601C24.7496 30.9611 24.8286 30.7702 24.9694 30.6295L30.4397 25.1601H15.75C15.5511 25.1601 15.3603 25.0811 15.2197 24.9404C15.079 24.7998 15 24.609 15 24.4101C15 24.2112 15.079 24.0204 15.2197 23.8798C15.3603 23.7391 15.5511 23.6601 15.75 23.6601H30.4397L24.9694 18.1907C24.8286 18.05 24.7496 17.8591 24.7496 17.6601C24.7496 17.4611 24.8286 17.2702 24.9694 17.1295C25.1101 16.9887 25.301 16.9097 25.5 16.9097C25.699 16.9097 25.8899 16.9887 26.0306 17.1295L32.7806 23.8795C32.8504 23.9491 32.9057 24.0318 32.9434 24.1229C32.9812 24.2139 33.0006 24.3115 33.0006 24.4101C33.0006 24.5086 32.9812 24.6062 32.9434 24.6973C32.9057 24.7883 32.8504 24.8711 32.7806 24.9407Z"
        fill="#667F93" />
</svg>