<svg width="34" height="33" viewBox="0 0 34 33" fill="none" xmlns="http://www.w3.org/2000/svg">
    <mask id="mask0_25_859" style="mask-type:luminance" maskUnits="userSpaceOnUse" x="0" y="15"
        width="24" height="18">
        <path
            d="M19.6657 18.4258C19.2973 18.6076 18.9149 18.7688 18.5261 18.9092C18.5192 18.9139 18.512 18.9159 18.5054 18.9188C16.6519 19.6494 14.623 20.238 12.6316 20.4045C11.2211 20.5219 9.81319 20.5699 8.45678 21.0114C7.24778 21.4045 6.1164 22.0218 5.12688 22.8193C4.24925 23.5264 3.48726 24.3734 2.87686 25.3268C2.86756 25.3383 2.85847 25.352 2.85179 25.366C2.65372 25.6972 2.46463 26.0362 2.28526 26.3789C2.27586 26.3953 2.26688 26.4114 2.25988 26.4296C1.28791 28.2811 0.571785 30.2866 0.155273 32.4003C0.445484 31.6402 0.814046 30.9221 1.25354 30.2497C2.04175 29.1238 2.92335 28.1181 4.03154 27.294C4.96444 26.6006 6.00242 26.0504 7.10048 25.6691C8.35023 25.2357 9.60227 25.0898 10.9182 25.0517C11.1898 25.0441 11.4625 25.0472 11.7358 25.0497C12.1874 25.0545 12.639 25.0594 13.0843 25.0155C13.746 24.9497 14.4021 24.8273 15.0425 24.6482C16.2768 24.3023 17.4469 23.7456 18.4982 23.0127C20.6906 21.4834 22.3231 19.2043 23.0231 16.549C23.0989 16.2685 23.1612 15.9828 23.2143 15.695C22.2309 16.8254 21.0246 17.758 19.6657 18.4258Z"
            fill="white" />
    </mask>
    <g mask="url(#mask0_25_859)">
        <path d="M-4.67188 17.2314L21.0942 9.03348L28.0409 30.8651L2.2748 39.0633L-4.67188 17.2314Z"
            fill="url(#paint0_linear_25_859)" />
    </g>
    <mask id="mask1_25_859" style="mask-type:luminance" maskUnits="userSpaceOnUse" x="2" y="0"
        width="32" height="24">
        <path
            d="M29.141 4.05756C28.6071 4.32572 28.0536 4.56191 27.4877 4.76593C27.4779 4.76843 27.4682 4.77345 27.4606 4.77825C25.2493 5.64916 22.9424 6.27396 20.5933 6.6377C18.2711 6.99727 15.9024 6.91077 13.6494 7.67837C12.0821 8.21218 10.6162 9.02365 9.32481 10.062C8.08269 11.0629 7.01504 12.2732 6.16906 13.6333C5.9526 13.9998 5.74335 14.371 5.54152 14.7476C4.16945 17.3231 3.16081 20.1174 2.58008 23.0687C2.97371 22.0331 3.47787 21.0515 4.07323 20.1368C6.75679 16.0142 11.1966 13.5202 16.0717 13.1711C18.1752 13.0187 20.3052 13.1633 22.3641 12.6468C24.1842 12.1918 25.9136 11.3974 27.4508 10.3275C30.4222 8.25386 32.636 5.16456 33.5882 1.56359C33.684 1.19452 33.7677 0.81574 33.8391 0.436851C33.8412 0.426927 33.8412 0.419928 33.844 0.410004C32.5381 1.91052 30.9389 3.1552 29.141 4.05756Z"
            fill="white" />
    </mask>
    <g mask="url(#mask1_25_859)">
        <path d="M-3.9668 2.49341L30.9702 -8.62255L40.3914 20.9859L5.4545 32.1018L-3.9668 2.49341Z"
            fill="url(#paint1_linear_25_859)" />
    </g>
    <mask id="mask2_25_859" style="mask-type:luminance" maskUnits="userSpaceOnUse" x="2" y="0"
        width="32" height="24">
        <path
            d="M29.141 4.05766C28.6071 4.32582 28.0536 4.56201 27.4877 4.76603C27.4779 4.76854 27.4682 4.77355 27.4606 4.77836C25.2493 5.64927 22.9424 6.27406 20.5933 6.63781C18.2711 6.99737 15.9024 6.91087 13.6493 7.67847C12.0821 8.21228 10.6162 9.02375 9.32481 10.0621C8.08269 11.063 7.01504 12.2733 6.16906 13.6334C5.9526 13.9999 5.74335 14.3711 5.54152 14.7477C4.16945 17.3232 3.16081 20.1175 2.58008 23.0688C2.99575 21.7507 3.53199 20.501 4.16401 19.3325C7.01013 14.0836 11.7182 10.9056 16.8886 10.4602C19.1196 10.2684 21.3804 10.4555 23.5643 9.79616C25.4932 9.21586 27.3254 8.20466 28.9564 6.83953C30.9514 5.16968 32.6237 2.98043 33.8392 0.436851C33.8414 0.426927 33.8413 0.419928 33.8441 0.410004C32.5381 1.91062 30.9389 3.15531 29.141 4.05766Z"
            fill="white" />
    </mask>
    <g mask="url(#mask2_25_859)">
        <path
            d="M-8.74121 11.2912L18.8301 -15.2093L45.1645 12.1873L17.5936 38.6877L-8.74121 11.2912Z"
            fill="url(#paint2_linear_25_859)" />
    </g>
    <mask id="mask3_25_859" style="mask-type:luminance" maskUnits="userSpaceOnUse" x="0" y="15"
        width="24" height="18">
        <path
            d="M19.7459 18.3881C19.3518 18.5855 18.9435 18.7599 18.5263 18.9104C18.519 18.9124 18.5119 18.9158 18.5062 18.9193C16.8752 19.5616 15.1737 20.0226 13.4409 20.2912C11.7283 20.5559 9.98117 20.4923 8.3192 21.0586C7.16348 21.4522 6.08224 22.0509 5.12991 22.8166C4.21363 23.5545 3.42626 24.4475 2.80227 25.4503C2.64254 25.7209 2.48845 25.9951 2.33969 26.2723C1.3274 28.172 0.583277 30.2327 0.155273 32.41C0.461781 31.4374 0.857399 30.5159 1.32364 29.654C3.4226 25.7825 6.89531 23.439 10.7086 23.1102C12.3543 22.9686 14.0216 23.1067 15.6327 22.6204C17.0551 22.1925 18.4067 21.4469 19.6092 20.4398C21.0808 19.2079 22.3145 17.5933 23.2107 15.7174C23.2127 15.7101 23.2127 15.7049 23.2144 15.6976C22.2508 16.8041 21.0718 17.722 19.7459 18.3881Z"
            fill="white" />
    </mask>
    <g mask="url(#mask3_25_859)">
        <path d="M-8.0498 22.4708L13.8683 4.37631L31.4199 25.6353L9.50188 43.7298L-8.0498 22.4708Z"
            fill="url(#paint3_linear_25_859)" />
    </g>
    <defs>
        <linearGradient id="paint0_linear_25_859" x1="-2.23463" y1="28.4864" x2="73.8007"
            y2="4.29246" gradientUnits="userSpaceOnUse">
            <stop stop-color="#166846" />
            <stop offset="1" stop-color="#00AA59" />
        </linearGradient>
        <linearGradient id="paint1_linear_25_859" x1="-5.28443" y1="19.2387" x2="70.8272"
            y2="-4.97961" gradientUnits="userSpaceOnUse">
            <stop stop-color="#166846" />
            <stop offset="1" stop-color="#00AA59" />
        </linearGradient>
        <linearGradient id="paint2_linear_25_859" x1="4.08937" y1="25.3218" x2="28.8747"
            y2="1.49706" gradientUnits="userSpaceOnUse">
            <stop stop-color="#166846" />
            <stop offset="1" stop-color="#00AA59" />
        </linearGradient>
        <linearGradient id="paint3_linear_25_859" x1="0.0811447" y1="33.6323" x2="18.4549"
            y2="18.4628" gradientUnits="userSpaceOnUse">
            <stop stop-color="#166846" />
            <stop offset="1" stop-color="#00AA59" />
        </linearGradient>
    </defs>
</svg>